<?xml version="1.0" encoding="utf-8"?>
<!-- Generator: Adobe Illustrator 16.0.0, SVG Export Plug-In . SVG Version: 6.00 Build 0)  -->
<!DOCTYPE svg PUBLIC "-//W3C//DTD SVG 1.1//EN" "http://www.w3.org/Graphics/SVG/1.1/DTD/svg11.dtd">
<svg version="1.1" id="Layer_1" xmlns="http://www.w3.org/2000/svg" xmlns:xlink="http://www.w3.org/1999/xlink" x="0px" y="0px"
	 width="800px" height="600px" viewBox="0 0 800 600" enable-background="new 0 0 800 600" xml:space="preserve">
<g>
	<path fill="#E1EFE6" d="M472.152,266.529c7.777-7.778,20.506-7.778,28.283,0l2.829,2.829c7.777,7.778,7.777,20.506-0.001,28.284
		L381.642,419.264c-7.778,7.778-20.506,7.778-28.284,0L231.735,297.642c-7.778-7.778-7.778-20.506,0-28.284l2.829-2.829
		c7.778-7.778,20.506-7.778,28.284,0l90.51,90.51c7.778,7.778,20.506,7.778,28.284,0L472.152,266.529z"/>
	<path fill="none" stroke="#E1EFE6" stroke-miterlimit="10" d="M472.152,266.529c7.777-7.778,20.506-7.778,28.283,0l2.829,2.829
		c7.777,7.778,7.777,20.506-0.001,28.284L381.642,419.264c-7.778,7.778-20.506,7.778-28.284,0L231.735,297.642
		c-7.778-7.778-7.778-20.506,0-28.284l2.829-2.829c7.778-7.778,20.506-7.778,28.284,0l90.51,90.51
		c7.778,7.778,20.506,7.778,28.284,0L472.152,266.529z"/>
</g>
</svg>
